<svg width="16" height="16" viewBox="0 0 16 16" fill="none" xmlns="http://www.w3.org/2000/svg">
  <rect width="16" height="16" fill="#A01F1C"/>
  <rect x="1" y="1" width="14" height="14" fill="#ECEEEE"/>
  <path fill-rule="evenodd" clip-rule="evenodd" d="M12.7064 3.15494C13.0352 3.40689 13.0973 3.87784 12.8453 4.20645L7.0953 11.7064C7.01816 11.8073 6.91757 11.8854 6.80429 11.9357C6.71103 11.977 6.60922 11.9994 6.50448 12.0002C6.27279 12.0016 6.05356 11.8957 5.91025 11.7135L3.16025 8.21353C3.0289 8.04629 2.97983 7.84073 3.00741 7.64566C3.03354 7.4606 3.12826 7.28506 3.28671 7.16031C3.61239 6.90445 4.08383 6.96109 4.33993 7.28677L6.49277 10.027L11.6549 3.29385C11.8077 3.09414 12.0413 2.99283 12.275 3.00039C12.4261 3.00528 12.5772 3.05581 12.7064 3.15494Z" fill="#A01F1C" />
</svg>